<svg width="15" height="15" viewBox="0 0 15 15" fill="none" xmlns="http://www.w3.org/2000/svg">
<path d="M7.5 13.75V11.875" stroke="black" stroke-width="2" stroke-linecap="round" stroke-linejoin="round"/>
<path fill-rule="evenodd" clip-rule="evenodd" d="M3.80188 5.00009H5.625C5.79076 5.00009 5.94973 5.06594 6.06694 5.18315C6.18415 5.30036 6.25 5.45933 6.25 5.62509C6.25 5.79085 6.18415 5.94983 6.06694 6.06704C5.94973 6.18425 5.79076 6.25009 5.625 6.25009H3.75V7.50009H5.625C5.79076 7.50009 5.94973 7.56594 6.06694 7.68315C6.18415 7.80036 6.25 7.95933 6.25 8.12509C6.25 8.29086 6.18415 8.44983 6.06694 8.56704C5.94973 8.68425 5.79076 8.75009 5.625 8.75009H3.80188C3.95043 9.62337 4.40322 10.4159 5.08008 10.9873C5.75694 11.5588 6.61418 11.8723 7.5 11.8723C8.38582 11.8723 9.24306 11.5588 9.91992 10.9873C10.5968 10.4159 11.0496 9.62337 11.1981 8.75009H10C9.83424 8.75009 9.67527 8.68425 9.55806 8.56704C9.44085 8.44983 9.375 8.29086 9.375 8.12509C9.375 7.95933 9.44085 7.80036 9.55806 7.68315C9.67527 7.56594 9.83424 7.50009 10 7.50009H11.25V6.25009H10C9.83424 6.25009 9.67527 6.18425 9.55806 6.06704C9.44085 5.94983 9.375 5.79085 9.375 5.62509C9.375 5.45933 9.44085 5.30036 9.55806 5.18315C9.67527 5.06594 9.83424 5.00009 10 5.00009H11.1981C11.0496 4.12682 10.5968 3.33429 9.91992 2.76285C9.24306 2.19141 8.38582 1.87793 7.5 1.87793C6.61418 1.87793 5.75694 2.19141 5.08008 2.76285C4.40322 3.33429 3.95043 4.12682 3.80188 5.00009Z" fill="black"/>
</svg>
